<svg xmlns="http://www.w3.org/2000/svg" id="cafeStoryIconSvg" viewBox="0 0 200 200" width="250" height="250" class="rounded-full shadow-md select-none transform group-hover:scale-105 duration-500 transition-transform cursor-pointer" style="display: block; max-width: 100%; background-color: transparent;"><g><radialGradient id="woodGrad" cx="50%" cy="50%" r="50%"><stop offset="0%" stop-color="#FFF3E3"/><stop offset="70%" stop-color="#FFF3E3"/><stop offset="100%" stop-color="#dbcebe"/></radialGradient><circle cx="100" cy="100" r="95" fill="url(#woodGrad)"/><circle cx="100" cy="100" r="85" fill="none" stroke="#D4A373" stroke-width="1" stroke-opacity="0.4" stroke-dasharray="50 15 30 15"/><circle cx="100" cy="100" r="70" fill="none" stroke="#8E5A36" stroke-width="1.5" stroke-opacity="0.25" stroke-dasharray="180 30"/><circle cx="100" cy="100" r="55" fill="none" stroke="#3D2314" stroke-width="1" stroke-opacity="0.15"/><path d="M 40,100 A 60,60 0 0,1 160,100" fill="none" stroke="#3D2314" stroke-width="0.5" stroke-opacity="0.1" stroke-dasharray="10 5"/></g><g stroke="#3D2314" stroke-width="2" fill="none" stroke-linecap="round" opacity="0.8"><path d="M92,68 C94,56 86,47 95,34 C100,23 90,18 97,8"/><path d="M108,68 C106,56 114,47 105,34 C100,23 110,18 103,8"/></g><g><path d="M123,90 C138,90 138,118 123,122" fill="none" stroke="#3D2314" stroke-width="3" stroke-linecap="round"/><path d="M74,80 L79,132 C80,140 120,140 121,132 L126,80 Z" fill="#3D2314"/><path d="M77,83 L81,129 C82,135 118,135 119,129 L123,83 Z" fill="#D4A373" fill-opacity="0.25"/><ellipse cx="100" cy="80" rx="24" ry="5.5" fill="#8E5A36"/><path d="M74,80 L79,132 C80,141 120,141 121,132 L126,80 Z" fill="none" stroke="#3D2314" stroke-width="3"/><ellipse cx="100" cy="80" rx="26" ry="6" fill="none" stroke="#3D2314" stroke-width="2"/></g><path d="M 98 78.5 C 92 73 88 78 98 84.5 C 108 78 104 73 98 78.5" fill="#FFFFFF" opacity="0.9" stroke="#3D2314" stroke-width="0.5"/><g><circle cx="100" cy="100" r="91" fill="none" stroke="#3D2314" stroke-width="2"/><circle cx="100" cy="100" r="87" fill="none" stroke="#8E5A36" stroke-width="0.75" stroke-opacity="0.8"/></g><g><path id="textPathCurve" d="M 28,150 A 75,75 0 0,0 172,150" fill="none"/><text class="font-sans font-semibold tracking-wider text-[9px]" fill="#3D2314" fill-opacity="0.85"><textPath href="#textPathCurve" startOffset="50%" text-anchor="middle">CAFESTORY</textPath></text></g></svg>